<svg xmlns="http://www.w3.org/2000/svg" width="480.241" height="400.973" viewBox="0 0 480.241 400.973">
  <g id="Group_116" data-name="Group 116" transform="translate(31.492 -130.714)">
    <g id="Group_104" data-name="Group 104" transform="translate(-31.492 130.714)">
      <path id="Path_16" data-name="Path 16" d="M656.011,630.527H364.5l.131-30.907c.333-78.206,62.755-142.647,140.95-143.977q1.267-.022,2.539-.022h0a147.46,147.46,0,0,1,51.542,9.26c55.329,20.606,92.467,72.958,94.937,131.948Z" transform="translate(-265.927 -251.743)" fill="#957aff"/>
      <rect id="Rectangle_39" data-name="Rectangle 39" width="480.241" height="1.202" transform="translate(0 378.783)" fill="#2f2e41"/>
      <path id="Path_17" data-name="Path 17" d="M398.287,385.439l12.845,9.342,12.845,109.766h30.36L443.828,379.6,401.79,363.252Z" transform="translate(-158.896 -144.893)" fill="#2f2e41"/>
      <path id="Path_18" data-name="Path 18" d="M509.16,441.292s-3.5,39.7,10.509,40.87S587.4,470.485,587.4,470.485l25.69,91.082,38.535-19.851s-23.354-102.759-37.367-108.6S553.533,415.6,553.533,415.6l-33.864,5.839Z" transform="translate(-323.484 -235.778)" fill="#2f2e41"/>
      <path id="Path_19" data-name="Path 19" d="M646.683,710.906s-7.006,26.858-2.335,29.193a84.441,84.441,0,0,1,8.174,4.671V740.1s5.839,5.839,5.839,10.509,31.528,5.839,31.528,0-1.168-12.845-7.006-16.348-12.845-23.354-12.845-23.354Z" transform="translate(-376.931 -353.589)" fill="#2f2e41"/>
      <path id="Path_20" data-name="Path 20" d="M505.14,507.814,507.475,530l8.174,14.012L535.5,521.827l-15.18-24.522Z" transform="translate(-201.524 -198.373)" fill="#2f2e41"/>
      <path id="Path_21" data-name="Path 21" d="M724.323,659.338s4.3-14.7,8.572-13.19,20.621,16.693,20.621,16.693l11.677,7.006s23.354,2.335,16.348,9.342-32.7,16.348-44.373,11.677-14.013-5.839-14.013-5.839l-3.5,2.335-14.013-3.5,2.335-24.522S711.479,669.847,724.323,659.338Z" transform="translate(-402.024 -327.71)" fill="#2f2e41"/>
      <circle id="Ellipse_36" data-name="Ellipse 36" cx="26.858" cy="26.858" r="26.858" transform="translate(198.521 5.835)" fill="#9f616a"/>
      <path id="Path_22" data-name="Path 22" d="M542.553,191.978s2.335,24.522-4.671,24.522,1.167,30.361,19.851,30.361,25.69-36.2,25.69-36.2-12.845-4.671-10.509-19.851S542.553,191.978,542.553,191.978Z" transform="translate(-334.106 -143.522)" fill="#9f616a"/>
      <path id="Path_23" data-name="Path 23" d="M517.817,229.109,508,233.315l-26.642,11.272a5.409,5.409,0,0,0-3.268,5.586l10.058,89.4s-10.509,22.187,5.839,23.354l2.336,8.174,18.683-22.187,70.063-2.335,1.168-113.268L554.18,220.647S549.82,244.754,517.817,229.109Z" transform="translate(-311.231 -158.001)" fill="#3f3d56"/>
      <path id="Path_24" data-name="Path 24" d="M476.317,265.1,472,263.866a3.558,3.558,0,0,0-4.491,2.861l-11.451,71.83a24.945,24.945,0,0,0,2.437,15.577c3.538,6.7,10.887,12.775,25.994,5.55L495,283.782Z" transform="translate(-302.317 -175.189)" fill="#3f3d56"/>
      <path id="Path_25" data-name="Path 25" d="M635.7,238.809l14.013,2.335,38.535,53.715,3.5,9.342,22.187-7.006s-1.168,10.509,10.509,9.342c0,0-14.013,38.535-43.206,26.858s-38.535-46.709-38.535-46.709Z" transform="translate(-374.122 -165.247)" fill="#3f3d56"/>
      <path id="Path_26" data-name="Path 26" d="M425.971,147.251l-52.548-21.019-2.335,7.006,24.522,21.019Z" transform="translate(-148.045 -50.335)" fill="#ccc"/>
      <path id="Path_27" data-name="Path 27" d="M537.651,150.824c.992-.265,1.138-1.582,1.171-2.608.178-5.5,3.487-11.134,8.747-12.733a14.705,14.705,0,0,1,6.2-.341,23.479,23.479,0,0,1,8.395,2.8,13.1,13.1,0,0,0,4.268,1.933c1.026.155,5.47,1.447,6.492,1.629,2.247.4,4.335,2.41,6.491,1.662,2.063-.716,2.519-3.386,2.569-5.569.114-4.973-3.661-11.855-6.986-15.554-2.523-2.807-6.323-4.1-10.036-4.777a66.816,66.816,0,0,0-13.126-.8c-5.943.106-12.052.565-17.411,3.136s-9.861,7.69-10.118,13.629c-.053,1.237.074,2.479-.03,3.713-.254,3.01-1.852,5.729-2.6,8.655a15.838,15.838,0,0,0,2.212,12.657c1.989,2.927,9.943,5.584,9.828,9.122,1.438-1.489-1.953-2.989-.515-4.478a3.542,3.542,0,0,0,1.053-4.327l-1.527-5.954a5.371,5.371,0,0,1-.132-3.314C534.228,145.263,536,151.266,537.651,150.824Z" transform="translate(-328.443 -116.42)" fill="#2f2e41"/>
      <path id="Path_28" data-name="Path 28" d="M356.362,124.713l-22.187,86.411,86.411,30.361L470.8,199.447l31.528-94.585-51.38,37.367Z" transform="translate(-133.318 -41.809)" fill="#f2f2f2"/>
      <rect id="Rectangle_40" data-name="Rectangle 40" width="1.168" height="86.954" transform="matrix(0.255, -0.967, 0.967, 0.255, 226.98, 93.394)" fill="#e6e6e6"/>
      <rect id="Rectangle_41" data-name="Rectangle 41" width="1.168" height="86.954" transform="matrix(0.255, -0.967, 0.967, 0.255, 224.644, 99.232)" fill="#e6e6e6"/>
      <rect id="Rectangle_42" data-name="Rectangle 42" width="1.168" height="86.954" transform="matrix(0.255, -0.967, 0.967, 0.255, 223.477, 105.071)" fill="#e6e6e6"/>
      <rect id="Rectangle_43" data-name="Rectangle 43" width="1.168" height="86.954" transform="matrix(0.255, -0.967, 0.967, 0.255, 222.309, 110.909)" fill="#e6e6e6"/>
      <rect id="Rectangle_44" data-name="Rectangle 44" width="1.168" height="86.954" transform="matrix(0.255, -0.967, 0.967, 0.255, 221.141, 116.748)" fill="#e6e6e6"/>
      <rect id="Rectangle_45" data-name="Rectangle 45" width="1.168" height="86.954" transform="matrix(0.255, -0.967, 0.967, 0.255, 219.973, 122.586)" fill="#e6e6e6"/>
      <rect id="Rectangle_46" data-name="Rectangle 46" width="1.168" height="86.954" transform="matrix(0.255, -0.967, 0.967, 0.255, 218.805, 128.425)" fill="#e6e6e6"/>
      <rect id="Rectangle_47" data-name="Rectangle 47" width="1.168" height="86.954" transform="matrix(0.255, -0.967, 0.967, 0.255, 217.638, 134.263)" fill="#e6e6e6"/>
      <rect id="Rectangle_48" data-name="Rectangle 48" width="1.168" height="86.954" transform="matrix(0.255, -0.967, 0.967, 0.255, 216.47, 140.102)" fill="#e6e6e6"/>
      <path id="Path_29" data-name="Path 29" d="M512.35,354.262s26.263-15.687,37.94-5.177-33.864,25.69-33.864,25.69Z" transform="translate(-324.912 -207.795)" fill="#9f616a"/>
      <path id="Path_30" data-name="Path 30" d="M463.62,364.335l33.864-12.845s-5.839,22.187,5.839,23.354L486.974,394.7S454.278,394.7,463.62,364.335Z" transform="translate(-304.801 -210.201)" fill="#3f3d56"/>
      <path id="Path_31" data-name="Path 31" d="M405.435,255.6l44.935,15.145-10.634,23.18L394.8,278.783Z" transform="translate(-157.505 -101.946)" fill="#e6e6e6"/>
      <path id="Path_32" data-name="Path 32" d="M537.991,156.779l33.864-25.69-9.342,31.529-35.032,25.69Z" transform="translate(-210.438 -52.272)" fill="#ccc"/>
      <rect id="Rectangle_49" data-name="Rectangle 49" width="42.506" height="1.168" transform="matrix(0.797, -0.604, 0.604, 0.797, 310.855, 147.245)" fill="#e6e6e6"/>
      <rect id="Rectangle_50" data-name="Rectangle 50" width="42.506" height="1.168" transform="matrix(0.797, -0.604, 0.604, 0.797, 308.519, 160.09)" fill="#e6e6e6"/>
      <path id="Path_33" data-name="Path 33" d="M772.067,336.383s29.193-17.516,10.509-24.522-18.683,19.851-18.683,19.851S762.725,337.55,772.067,336.383Z" transform="translate(-425.245 -193.925)" fill="#9f616a"/>
      <path id="Path_34" data-name="Path 34" d="M291.63,171.888l-1.168,45.541,18.1-5.165-14.6.494Z" transform="translate(-115.879 -68.549)" opacity="0.1"/>
      <path id="Path_35" data-name="Path 35" d="M280.177,694.423c3.65,13.494,16.153,21.851,16.153,21.851s6.585-13.521,2.935-27.014-16.153-21.851-16.153-21.851S276.526,680.93,280.177,694.423Z" transform="translate(-231.847 -336.236)" fill="#8985a8"/>
      <path id="Path_36" data-name="Path 36" d="M273.218,700.514c10.016,9.751,11.24,24.74,11.24,24.74s-15.016-.82-25.033-10.571-11.24-24.74-11.24-24.74S263.2,690.763,273.218,700.514Z" transform="translate(-219.524 -345.226)" fill="#3f3d56"/>
      <rect id="Rectangle_51" data-name="Rectangle 51" width="18.032" height="18.032" transform="translate(376.259 227.919)" fill="#f2f2f2"/>
      <rect id="Rectangle_52" data-name="Rectangle 52" width="18.032" height="18.032" transform="translate(304.133 23.561)" fill="#f2f2f2"/>
      <circle id="Ellipse_37" data-name="Ellipse 37" cx="9.016" cy="9.016" r="9.016" transform="translate(86.552 188.25)" fill="#f2f2f2"/>
    </g>
  </g>
</svg>
